<svg xmlns="http://www.w3.org/2000/svg" viewBox="0 0 760 480"><style>text{font-family:serif;font-size:20px}.w{stroke:#111;stroke-width:2;fill:none}</style><text x="35" y="35">4-1</text><circle class="w" cx="150" cy="210" r="28"/><path class="w" d="M130 210 q10 -12 20 0 q10 12 20 0"/><text x="90" y="215">E=100V</text><line class="w" x1="178" y1="210" x2="530" y2="210"/><rect class="w" x="260" y="190" width="45" height="40"/><text x="250" y="175">R=4Ω</text><path class="w" d="M350 210 q12 -20 24 0 q12 20 24 0 q12 -20 24 0"/><text x="360" y="175">XL=4Ω</text><line class="w" x1="470" y1="190" x2="470" y2="230"/><line class="w" x1="485" y1="195" x2="485" y2="225"/><text x="455" y="175">XC=1Ω</text><line class="w" x1="530" y1="210" x2="530" y2="310"/><line class="w" x1="530" y1="310" x2="150" y2="310"/><line class="w" x1="150" y1="310" x2="150" y2="238"/><text x="35" y="395">4-2  Pout=450kW, P0=20kW, Pload=30kW → η=?</text></svg>