<svg xmlns="http://www.w3.org/2000/svg" viewBox="0 0 650 300">
<style>text{font-family:serif;font-size:22px;fill:#111}.w{stroke:#111;stroke-width:2;fill:none}</style>
<text x="25" y="160">A</text><text x="610" y="160">B</text>
<circle cx="55" cy="150" r="4" fill="#111"/><circle cx="595" cy="150" r="4" fill="#111"/>
<line class="w" x1="55" y1="150" x2="110" y2="150"/><rect x="110" y="132" width="80" height="36" fill="white" stroke="#111" stroke-width="2"/><text x="130" y="125">6Ω</text>
<line class="w" x1="190" y1="150" x2="245" y2="150"/><line class="w" x1="245" y1="65" x2="245" y2="235"/><line class="w" x1="500" y1="65" x2="500" y2="235"/><line class="w" x1="500" y1="150" x2="595" y2="150"/>
<line class="w" x1="245" y1="65" x2="320" y2="65"/><rect x="320" y="47" width="90" height="36" fill="white" stroke="#111" stroke-width="2"/><text x="345" y="40">6Ω</text><line class="w" x1="410" y1="65" x2="500" y2="65"/>
<line class="w" x1="245" y1="150" x2="320" y2="150"/><rect x="320" y="132" width="90" height="36" fill="white" stroke="#111" stroke-width="2"/><text x="345" y="125">6Ω</text><line class="w" x1="410" y1="150" x2="500" y2="150"/>
<line class="w" x1="245" y1="235" x2="320" y2="235"/><rect x="320" y="217" width="90" height="36" fill="white" stroke="#111" stroke-width="2"/><text x="345" y="210">6Ω</text><line class="w" x1="410" y1="235" x2="500" y2="235"/>
</svg>